<?xml version="1.0" encoding="UTF-8"?>
<svg width="142px" height="142px" viewBox="0 0 142 142" version="1.1" xmlns="http://www.w3.org/2000/svg" xmlns:xlink="http://www.w3.org/1999/xlink">
    <title>Group Copy 3</title>
    <defs>
        <rect id="path-1" x="0" y="0" width="133.062937" height="134" rx="40"></rect>
    </defs>
    <g id="Page-1" stroke="none" stroke-width="1" fill="none" fill-rule="evenodd">
        <g id="Group-Copy-3">
            <rect id="Rectangle" fill="#354F76" x="4.46853147" y="3.5" width="137.034965" height="138" rx="40"></rect>
            <mask id="mask-2" fill="white">
                <use xlink:href="#path-1"></use>
            </mask>
            <use id="Rectangle" fill="#1A3763" xlink:href="#path-1"></use>
            <g id="aaa" mask="url(#mask-2)" fill-rule="nonzero">
                <g transform="translate(24.500000, 24.000000)">
                    <path d="M22.5579369,0.106410726 C23.8827612,0.0395466035 25.2111999,-0.0570287181 26.535852,0.0432676369 C38.3570294,0.0544116004 50.1819935,0.0432599481 62.0031709,0.0469744887 C67.3169261,0.072977298 72.817778,1.20967251 77.2148105,4.31143863 C80.9193957,6.88198957 83.5389227,10.7972589 84.9084987,15.0394214 C85.7541348,17.632304 86.2143895,20.3514024 86.2892626,23.0742598 C86.2780747,34.6937323 86.2930493,46.3169638 86.2818614,57.9366072 C94.8211857,66.1125263 103.379271,74.2737513 111.922554,82.4459115 C112.2069,82.7245875 112.592282,83.0849355 112.480058,83.5231966 C112.2742,83.9170336 111.757833,83.9541107 111.364879,83.9993692 C83.089856,83.9913586 54.8146613,83.9993692 26.5432533,83.9993692 C21.5775291,84.0246767 16.4846067,83.2928746 12.0315312,81.0009313 C9.44202227,79.6748711 7.12942343,77.7989768 5.35567021,75.5032745 C2.38446317,71.68092 0.895126315,66.8851645 0.569565867,62.1117918 C0.453561577,60.9379697 0.51343253,59.7568004 0.532142896,58.5792193 C0.532142896,45.5702967 0.532142896,32.561545 0.532142896,19.5527933 C0.629436837,15.563199 1.7782541,11.5067635 4.27422672,8.32700395 C6.76643502,5.09150924 10.4374219,2.94071506 14.2880182,1.6851525 C16.9635883,0.80848504 19.7550998,0.325577677 22.5579369,0.106410726 Z M17.5847771,10.8975549 C15.7100054,11.5030558 13.9849111,12.6768779 12.9109205,14.3373493 C11.8107673,16.0312414 11.2981015,18.0816712 11.3617179,20.0875914 C11.3617179,25.7487632 11.3617179,31.4099349 11.3617179,37.0711066 C16.3386644,37.0711066 21.3155592,37.0748656 26.296258,37.0711066 L26.296258,28.9619946 C26.2814555,27.6248283 26.8800963,26.2577612 27.9914891,25.474017 C29.1104552,24.6716489 30.5399297,24.45978 31.8945311,24.493269 C34.1622404,24.493269 36.4299498,24.493269 38.6976592,24.493269 C38.7088471,19.7644913 38.6938725,15.0357137 38.7050604,10.3069361 C33.5522395,10.2920711 28.3994186,10.306919 23.2502122,10.2994865 C21.3492952,10.1174672 19.4034542,10.3106438 17.5847771,10.8975549 Z M48.7674937,10.2957788 C48.7451178,15.0282812 48.7600924,19.7607324 48.7600924,24.493269 C51.1624013,24.4970279 53.5684969,24.493269 55.9709779,24.493269 C57.2544928,24.5007869 58.6054796,24.783051 59.6270246,25.5965251 C60.6411683,26.3915461 61.1762961,27.6916354 61.1613215,28.9584065 C61.1613215,31.6626399 61.1349868,34.3668732 61.1463469,37.0711066 C66.1306602,37.0786246 71.1151456,37.0711066 76.0958444,37.0711066 L76.0958444,19.8164334 C76.1295804,18.4457782 75.9087476,17.0638461 75.4223304,15.7786389 C74.7486443,13.9621705 73.3604791,12.4354328 71.6315121,11.5513414 C69.3638027,10.3812098 66.7256865,10.0803218 64.2073672,10.2994865 C59.0619476,10.2957788 53.9165279,10.3106438 48.7712804,10.2920711 L48.7674937,10.2957788 Z M11.3654529,46.9262578 C11.3617006,52.9031826 11.3654529,58.8763484 11.3654529,64.8532732 C11.4066073,66.2722823 11.6872697,67.7099155 12.37581,68.9691687 C13.195318,70.5106859 14.5948604,71.6993731 16.1777646,72.4275871 C18.4566103,73.4862482 21.0238122,73.8093483 23.5159688,73.6979463 C28.578942,73.7017053 33.6420873,73.6979463 38.7012737,73.6979463 C38.7012737,68.9691687 38.7050604,64.2366321 38.7012737,59.5078545 C36.2951782,59.5078545 33.8926971,59.5078545 31.4903882,59.5078545 C30.2068733,59.5040955 28.8558865,59.2180725 27.8343416,58.4045983 C26.8201978,57.6059892 26.2888567,56.3057291 26.3038314,55.0353699 L26.3038314,46.9262578 C21.3269193,46.9262578 16.3499039,46.9262578 11.369188,46.9262578 L11.3654529,46.9262578 Z M61.1275855,47.5094099 C61.1126109,50.0614053 61.1237989,52.6134006 61.1237989,55.1616369 C61.1649361,56.2500281 60.8843769,57.3978792 60.1246298,58.2151123 C59.2752069,59.1029115 58.0066667,59.4892305 56.7980249,59.4743655 C54.0213503,59.4632595 51.2446757,59.4892305 48.4681732,59.4595005 C48.4044881,60.0761416 48.4531986,60.6927827 48.438224,61.3131827 C48.4344373,65.3733772 48.4494119,69.4298127 48.4306506,73.4898363 C49.6095153,73.5344313 50.7919944,73.4973543 51.970687,73.5084603 C63.7768897,73.5011132 75.5832646,73.5233253 87.3894674,73.4973543 C82.3151342,68.4379586 77.2072372,63.41564 72.1292894,58.3600033 C68.4470801,54.7604529 64.8435307,51.0754714 61.1313722,47.5094099 L61.1275855,47.5094099 Z" id="Shape" fill="#FFFFFF"></path>
                    <path d="M60.2140314,47 C63.9339211,50.5656383 67.537505,54.2501826 71.223623,57.8493059 C76.3071334,62.9045135 81.4204526,67.9260653 86.5,72.9848607 C74.6812647,73.0108286 62.8625294,72.9886192 51.0436218,72.9959654 C49.8598874,72.9848607 48.6799437,73.0219333 47.5,72.9775145 C47.5186089,68.9178018 47.5,64.8618476 47.5074091,60.8021348 C47.5223996,60.1818084 47.4738097,59.5616528 47.5373902,58.9486726 C50.3170122,58.9783991 53.096462,58.9488435 55.8760841,58.9637067 C57.0860088,58.9783991 58.3596864,58.5921259 59.2063925,57.7044321 C59.9667739,56.8872959 60.2478031,55.739581 60.2066223,54.651319 C60.2066223,52.0996265 60.1952501,49.5481048 60.2102407,47 L60.2140314,47 Z" id="Path" fill="#54A69A"></path>
                </g>
            </g>
        </g>
    </g>
</svg>